<?xml version="1.0" encoding="iso-8859-1"?>
<!-- Uploaded to: SVG Repo, www.svgrepo.com, Transformed by: SVG Repo Mixer Tools -->
<svg height="800px" width="800px" version="1.1" id="Layer_1" xmlns="http://www.w3.org/2000/svg" xmlns:xlink="http://www.w3.org/1999/xlink" 
	 viewBox="0 0 512 512" xml:space="preserve">
<g>
	<path style="fill:#FFB655;" d="M445.217,100.174H66.783c-6.327,0-12.103-3.576-14.935-9.228L26.51,40.272
		c-4.342-8.696-3.886-18.815,1.218-27.076C32.837,4.935,41.685,0,51.403,0h409.196c9.717,0,18.566,4.935,23.674,13.195
		c5.103,8.261,5.56,18.381,1.218,27.076l-25.337,50.674C457.321,96.598,451.544,100.174,445.217,100.174z"/>
	<path style="fill:#FFB655;" d="M460.597,512H51.403c-9.717,0-18.566-4.935-23.674-13.195c-5.103-8.261-5.56-18.381-1.218-27.076
		l25.337-50.674c2.832-5.653,8.608-14.795,14.935-14.795l378.435,5.565c6.327,0,12.103,3.576,14.935,9.228l25.337,50.674
		c4.342,8.696,3.886,18.815-1.218,27.076C479.163,507.065,470.315,512,460.597,512z"/>
</g>
<g>
	<path style="fill:#FFA733;" d="M460.152,421.054c-2.832-5.652-8.608-9.228-14.935-9.228H256.279V512h204.319
		c9.717,0,18.566-4.935,23.674-13.195c5.103-8.261,5.56-18.381,1.218-27.076L460.152,421.054z"/>
	<path style="fill:#FFA733;" d="M460.597,0H256.279v100.174h188.938c6.327,0,12.103-3.576,14.935-9.228l25.337-50.674
		c4.342-8.696,3.886-18.815-1.218-27.076C479.163,4.935,470.315,0,460.597,0z"/>
</g>
<path style="fill:#FFDAAA;" d="M463.137,83.478H48.863c-42.517,106.519-42.517,238.524,0,345.043h414.275
	C505.655,322.002,505.655,189.998,463.137,83.478z"/>
<path style="fill:#FFC477;" d="M463.137,428.522H256.279V83.478h206.858C505.655,189.998,505.655,322.002,463.137,428.522z"/>
<path style="fill:#91DC5A;" d="M251.74,324.329c-3.946-1.038-7.226-3.429-9.424-6.576c-2.198-3.147-3.317-7.049-2.94-11.108
	c6.39-68.688,65.784-110.208,132.223-92.499c3.927,1.044,7.191,3.424,9.384,6.556s3.314,7.014,2.953,11.064
	C377.728,301.188,317.697,341.717,251.74,324.329z"/>
<path style="fill:#6DC82A;" d="M251.74,324.329c65.812,17.35,125.974-23.001,132.196-92.565c0.362-4.049-0.759-7.932-2.953-11.065
	l-138.666,97.053C244.516,320.899,247.796,323.29,251.74,324.329z"/>
<path style="fill:#91DC5A;" d="M116.936,198.265c-0.362-4.049,0.759-7.932,2.953-11.064c2.194-3.132,5.458-5.512,9.384-6.556
	c66.439-17.709,125.833,23.811,132.223,92.499c0.377,4.059-0.74,7.962-2.94,11.108c-2.199,3.147-5.478,5.538-9.424,6.576
	C183.176,308.218,123.145,267.691,116.936,198.265z"/>
<g>
	<path style="fill:#6DC82A;" d="M256.279,384c-9.223,0-16.696-7.479-16.696-16.696V150.261c0-9.217,7.473-16.696,16.696-16.696
		c9.223,0,16.696,7.479,16.696,16.696v217.043C272.975,376.521,265.502,384,256.279,384z"/>
	<path style="fill:#6DC82A;" d="M249.133,290.83c-65.812,17.35-125.974-23.001-132.196-92.565
		c-0.362-4.049,0.759-7.932,2.953-11.065l138.667,97.054C256.357,287.401,253.078,289.792,249.133,290.83z"/>
</g>
</svg>