<svg version="1.1" xmlns="http://www.w3.org/2000/svg" viewBox="164 -28 77 79">
  <style>.st0{fill:#D6EE00;}</style>

  <!-- Fertilizer granules falling onto the leaf -->
  <circle cx="176" cy="-21" r="2"   fill="#D6EE00"/>
  <circle cx="189" cy="-25" r="2.4" fill="#D6EE00"/>
  <circle cx="202" cy="-22" r="2"   fill="#D6EE00"/>
  <circle cx="216" cy="-24" r="2.2" fill="#D6EE00"/>
  <circle cx="229" cy="-19" r="1.8" fill="#D6EE00"/>
  <circle cx="237" cy="-23" r="1.5" fill="#D6EE00"/>

  <circle cx="183" cy="-13" r="1.4" fill="#D6EE00"/>
  <circle cx="196" cy="-15" r="1.6" fill="#D6EE00"/>
  <circle cx="210" cy="-12" r="1.4" fill="#D6EE00"/>
  <circle cx="223" cy="-14" r="1.5" fill="#D6EE00"/>

  <!-- Original leaf -->
  <g transform="matrix(0.29342345,0,0,-0.29342345,-25.246447,140.34483)">
    <path d="M884.3,478.3c-9.7,0-23.5-0.1-40.3-0.6c-33.4-1.1-73.9-6.4-108-31.1
      c-37-26.9-44.2-59.4-39.1-85.1c0,0-15.9-5.7-37.1-5.4v-22.2c26,1.3,51.4,10.2,51.4,10.2c22.4-13.9,83.3-26.8,128.7-1.3
      c44.1,24.8,53.8,73.8,57.7,102.5c2,14.9,1.9,32.8,1.9,32.8S893.9,478.3,884.3,478.3z M863.2,457.2
      c-13.5-15.1-69.7-59.6-138.5-85.8c-0.5-0.2-5.3,36.6,41.6,64.1C804.3,457.8,863.2,457.2,863.2,457.2z M875.3,446.6
      c0,0-1.5-54.2-43.7-80.6c-47.8-29.9-93.2-12.4-92.7-12.2C786.6,371.6,843.6,407.2,875.3,446.6z"/>
    <path class="st0" d="M863.2,457.2c0,0-58.9,0.6-96.9-21.7
      c-46.9-27.5-42.1-64.3-41.6-64.1C793.5,397.6,849.7,442.1,863.2,457.2z M875.3,446.6c-31.8-39.5-88.7-75-136.4-92.8
      c-0.5-0.2,44.8-17.7,92.7,12.2C873.8,392.5,875.3,446.6,875.3,446.6z"/>
  </g>
</svg>
